<?xml version="1.0" standalone="no"?>
<!DOCTYPE svg PUBLIC "-//W3C//DTD SVG 20010904//EN"
 "http://www.w3.org/TR/2001/REC-SVG-20010904/DTD/svg10.dtd">
<svg version="1.0" xmlns="http://www.w3.org/2000/svg"
 width="200.000000pt" height="200.000000pt" viewBox="0 0 200.000000 200.000000"
 preserveAspectRatio="xMidYMid meet">
<metadata>
Created by potrace 1.11, written by Peter Selinger 2001-2013
</metadata>
<g transform="translate(0.000000,200.000000) scale(0.100000,-0.100000)"
fill="#000000" stroke="none">
<path d="M0 1000 l0 -1000 688 0 689 0 12 56 c7 30 10 58 7 61 -3 4 -1 12 5
19 6 8 9 20 6 28 -3 9 7 75 23 148 16 73 56 261 89 418 33 157 79 368 101 470
100 456 132 611 126 617 -3 3 -54 -9 -113 -27 -213 -66 -293 -88 -287 -79 3 5
-2 12 -11 15 -9 4 -13 10 -8 13 12 9 36 81 29 88 -3 4 -6 -1 -6 -10 0 -21 -19
-32 -32 -19 -6 6 -6 12 3 17 8 5 10 4 5 -3 -4 -7 -2 -12 3 -12 14 0 14 13 -1
28 -9 9 -9 12 0 12 7 0 11 3 11 8 -4 21 2 32 14 26 9 -6 9 -5 0 8 -7 8 -11 17
-8 19 2 3 -5 6 -17 6 -20 2 -20 1 -2 -12 24 -18 14 -19 -20 -2 -25 14 -24 14
46 38 39 13 76 28 82 35 6 6 25 16 41 22 22 8 -170 11 -722 11 l-753 1 0
-1000z m1476 483 c-3 -10 -44 -184 -90 -388 -117 -512 -123 -535 -130 -542 -4
-4 -24 10 -45 31 l-39 38 -13 -63 -14 -63 -305 294 c-168 161 -306 297 -308
301 -2 4 14 13 35 19 57 18 58 25 14 61 -42 33 -51 49 -28 49 6 0 215 63 462
140 248 76 454 139 458 139 5 1 6 -7 3 -16z"/>
<path d="M1030 1292 c-190 -57 -347 -106 -349 -108 -3 -3 2 -11 10 -18 12 -11
62 2 324 85 170 54 310 97 312 96 1 -2 -29 -146 -67 -322 -56 -258 -67 -322
-56 -333 10 -10 28 56 95 344 46 195 81 357 79 358 -1 2 -158 -44 -348 -102z"/>
<path d="M982 1170 c-118 -38 -215 -70 -217 -72 -2 -2 78 -78 178 -170 100
-91 183 -165 185 -163 4 4 102 452 102 466 0 16 -30 9 -248 -61z"/>
<path d="M662 1061 c5 -13 422 -408 433 -410 6 -1 11 4 13 12 4 17 -413 407
-434 407 -9 0 -14 -4 -12 -9z"/>
<path d="M1876 1243 c-66 -307 -152 -709 -193 -893 -40 -184 -73 -338 -73
-342 0 -5 35 -8 79 -8 73 0 79 2 85 23 10 36 76 339 80 366 2 14 9 39 15 55 6
16 13 52 15 80 3 29 30 165 60 303 l56 251 -2 362 -3 361 -119 -558z"/>
</g>
</svg>
